<?xml version="1.0" encoding="UTF-8"?>
<svg width="32" height="32" viewBox="0 0 32 32" xmlns="http://www.w3.org/2000/svg">
  <defs>
    <linearGradient id="dinoGradient" x1="0%" y1="0%" x2="100%" y2="100%">
      <stop offset="0%" stop-color="#06f7ff"/>
      <stop offset="100%" stop-color="#a9ff33"/>
    </linearGradient>
  </defs>
  
  <!-- Background Circle -->
  <circle cx="16" cy="16" r="15" fill="#0f1720" stroke="url(#dinoGradient)" stroke-width="1"/>
  
  <!-- Dinosaur Body -->
  <path d="M12 18C12 15 14 12 18 12C22 12 24 15 24 18C24 21 22 24 18 24C14 24 12 21 12 18Z" fill="url(#dinoGradient)"/>
  
  <!-- Dinosaur Head -->
  <path d="M18 10C20 10 22 11 22 13C22 15 20 16 18 16C16 16 14 15 14 13C14 11 16 10 18 10Z" fill="url(#dinoGradient)"/>
  
  <!-- Dinosaur Spikes -->
  <path d="M14 20L12 18L14 16M20 20L22 18L20 16" stroke="#06f7ff" stroke-width="1.5" fill="none"/>
  
  <!-- Dinosaur Tail -->
  <path d="M24 18L28 16L26 20" stroke="#a9ff33" stroke-width="1.5" fill="none"/>
  
  <!-- Dinosaur Eye -->
  <circle cx="17" cy="13" r="1" fill="#0f1720"/>
</svg>